<?xml version="1.0" encoding="UTF-8" standalone="no"?>
<!DOCTYPE svg PUBLIC "-//W3C//DTD SVG 1.1//EN"
 "http://www.w3.org/Graphics/SVG/1.1/DTD/svg11.dtd">
<!-- Generated by graphviz version 2.43.0 (0)
 -->
<!-- Pages: 1 -->
<svg width="1400pt" height="1526pt"
 viewBox="0.00 0.00 1400.41 1525.91" xmlns="http://www.w3.org/2000/svg" xmlns:xlink="http://www.w3.org/1999/xlink">
<g id="graph0" class="graph" transform="scale(1 1) rotate(0) translate(4 1521.91)">
<polygon fill="white" stroke="transparent" points="-4,4 -4,-1521.91 1396.41,-1521.91 1396.41,4 -4,4"/>
<!-- NLP -->
<g id="node1" class="node">
<title>NLP</title>
<ellipse fill="#0e8a16" stroke="black" cx="799.94" cy="-379.89" rx="36" ry="36"/>
<text text-anchor="middle" x="799.94" y="-376.79" font-family="Times,serif" font-size="12.00" fill="#ffffff">NLP</text>
</g>
<!-- Survey -->
<g id="node2" class="node">
<title>Survey</title>
<ellipse fill="#0e8a16" stroke="black" cx="982.11" cy="-706.67" rx="41.5" ry="15"/>
<text text-anchor="middle" x="982.11" y="-703.57" font-family="Times,serif" font-size="12.00" fill="#ffffff">Survey</text>
</g>
<!-- NLP&#45;&#45;Survey -->
<g id="edge1" class="edge">
<title>NLP&#45;&#45;Survey</title>
<path fill="none" stroke="black" d="M791.34,-414.87C784.71,-449.28 779.43,-502.55 797.79,-543.95 830.56,-617.9 915.81,-671.53 957.89,-694.4"/>
</g>
<!-- Dataset -->
<g id="node3" class="node">
<title>Dataset</title>
<ellipse fill="#0e8a16" stroke="black" cx="613.77" cy="-420.03" rx="44.5" ry="15"/>
<text text-anchor="middle" x="613.77" y="-416.93" font-family="Times,serif" font-size="12.00" fill="#ffffff">Dataset</text>
</g>
<!-- NLP&#45;&#45;Dataset -->
<g id="edge2" class="edge">
<title>NLP&#45;&#45;Dataset</title>
<path fill="none" stroke="black" d="M764.49,-387.53C732.1,-394.52 684.36,-404.81 651.33,-411.93"/>
</g>
<!-- PersonalizedDocumentSummarization -->
<g id="node4" class="node">
<title>PersonalizedDocumentSummarization</title>
<ellipse fill="#b60205" stroke="black" cx="408.32" cy="-683.42" rx="174.5" ry="15"/>
<text text-anchor="middle" x="408.32" y="-680.32" font-family="Times,serif" font-size="12.00" fill="#ffffff">PersonalizedDocumentSummarization</text>
</g>
<!-- NLP&#45;&#45;PersonalizedDocumentSummarization -->
<g id="edge3" class="edge">
<title>NLP&#45;&#45;PersonalizedDocumentSummarization</title>
<path fill="none" stroke="black" d="M771.46,-401.96C695.95,-460.48 492.04,-618.53 427.91,-668.24"/>
</g>
<!-- InteractivePersonalizedSummarization -->
<g id="node5" class="node">
<title>InteractivePersonalizedSummarization</title>
<ellipse fill="#b60205" stroke="black" cx="1214.91" cy="-238.56" rx="177.5" ry="15"/>
<text text-anchor="middle" x="1214.91" y="-235.46" font-family="Times,serif" font-size="12.00" fill="#ffffff">InteractivePersonalizedSummarization</text>
</g>
<!-- NLP&#45;&#45;InteractivePersonalizedSummarization -->
<g id="edge4" class="edge">
<title>NLP&#45;&#45;InteractivePersonalizedSummarization</title>
<path fill="none" stroke="black" d="M834.25,-368.2C909.6,-342.54 1089.35,-281.32 1172,-253.17"/>
</g>
<!-- ReviewGeneration -->
<g id="node6" class="node">
<title>ReviewGeneration</title>
<ellipse fill="#b60205" stroke="black" cx="523.94" cy="-73.26" rx="90.5" ry="15"/>
<text text-anchor="middle" x="523.94" y="-70.16" font-family="Times,serif" font-size="12.00" fill="#ffffff">ReviewGeneration</text>
</g>
<!-- NLP&#45;&#45;ReviewGeneration -->
<g id="edge5" class="edge">
<title>NLP&#45;&#45;ReviewGeneration</title>
<path fill="none" stroke="black" d="M775.69,-352.95C719.39,-290.4 581.3,-136.98 537.5,-88.33"/>
</g>
<!-- DocumentSummarization -->
<g id="node7" class="node">
<title>DocumentSummarization</title>
<ellipse fill="#b60205" stroke="black" cx="436.78" cy="-356.79" rx="120" ry="15"/>
<text text-anchor="middle" x="436.78" y="-353.69" font-family="Times,serif" font-size="12.00" fill="#ffffff">DocumentSummarization</text>
</g>
<!-- NLP&#45;&#45;DocumentSummarization -->
<g id="edge6" class="edge">
<title>NLP&#45;&#45;DocumentSummarization</title>
<path fill="none" stroke="black" d="M763.79,-377.59C713.02,-374.36 618.47,-368.34 544.04,-363.61"/>
</g>
<!-- MachineTranslation -->
<g id="node8" class="node">
<title>MachineTranslation</title>
<ellipse fill="#b60205" stroke="black" cx="1078.88" cy="-104.74" rx="97.5" ry="15"/>
<text text-anchor="middle" x="1078.88" y="-101.64" font-family="Times,serif" font-size="12.00" fill="#ffffff">MachineTranslation</text>
</g>
<!-- NLP&#45;&#45;MachineTranslation -->
<g id="edge7" class="edge">
<title>NLP&#45;&#45;MachineTranslation</title>
<path fill="none" stroke="black" d="M825.68,-354.49C882.73,-298.22 1018.34,-164.46 1063.76,-119.65"/>
</g>
<!-- Others -->
<g id="node9" class="node">
<title>Others</title>
<ellipse fill="#d65b26" stroke="black" cx="883.23" cy="-887.73" rx="40.5" ry="15"/>
<text text-anchor="middle" x="883.23" y="-884.63" font-family="Times,serif" font-size="12.00" fill="#ffffff">Others</text>
</g>
<!-- NLP&#45;&#45;Others -->
<g id="edge8" class="edge">
<title>NLP&#45;&#45;Others</title>
<path fill="none" stroke="black" d="M796.83,-415.87C794.57,-449.2 792.71,-500.09 797.79,-543.95 812.81,-673.77 861.76,-824.95 877.97,-872.57"/>
</g>
<!-- SentimentAnalysis -->
<g id="node10" class="node">
<title>SentimentAnalysis</title>
<ellipse fill="#b60205" stroke="black" cx="905.54" cy="-25.93" rx="90.5" ry="15"/>
<text text-anchor="middle" x="905.54" y="-22.83" font-family="Times,serif" font-size="12.00" fill="#ffffff">SentimentAnalysis</text>
</g>
<!-- NLP&#45;&#45;SentimentAnalysis -->
<g id="edge9" class="edge">
<title>NLP&#45;&#45;SentimentAnalysis</title>
<path fill="none" stroke="black" d="M810.26,-345.3C832.73,-269.98 885.34,-93.64 901.04,-41.01"/>
</g>
<!-- LanguageModel -->
<g id="node11" class="node">
<title>LanguageModel</title>
<ellipse fill="#b60205" stroke="black" cx="713.08" cy="-15" rx="80.5" ry="15"/>
<text text-anchor="middle" x="713.08" y="-11.9" font-family="Times,serif" font-size="12.00" fill="#ffffff">LanguageModel</text>
</g>
<!-- NLP&#45;&#45;LanguageModel -->
<g id="edge10" class="edge">
<title>NLP&#45;&#45;LanguageModel</title>
<path fill="none" stroke="black" d="M791.53,-344.57C773.06,-266.95 729.53,-84.12 716.7,-30.21"/>
</g>
<!-- QuestionAnswering -->
<g id="node12" class="node">
<title>QuestionAnswering</title>
<ellipse fill="#b60205" stroke="black" cx="387.58" cy="-466.24" rx="95" ry="15"/>
<text text-anchor="middle" x="387.58" y="-463.14" font-family="Times,serif" font-size="12.00" fill="#ffffff">QuestionAnswering</text>
</g>
<!-- NLP&#45;&#45;QuestionAnswering -->
<g id="edge11" class="edge">
<title>NLP&#45;&#45;QuestionAnswering</title>
<path fill="none" stroke="black" d="M763.95,-384.25C726.51,-388.83 666.18,-396.35 614.16,-403.43 599.6,-405.41 595.79,-405.02 581.45,-408.19 527.25,-420.19 466.1,-439.49 427.23,-452.5"/>
</g>
<!-- NaturalLanguageGeneration -->
<g id="node13" class="node">
<title>NaturalLanguageGeneration</title>
<ellipse fill="#b60205" stroke="black" cx="934.39" cy="-543.98" rx="135" ry="15"/>
<text text-anchor="middle" x="934.39" y="-540.88" font-family="Times,serif" font-size="12.00" fill="#ffffff">NaturalLanguageGeneration</text>
</g>
<!-- NLP&#45;&#45;NaturalLanguageGeneration -->
<g id="edge12" class="edge">
<title>NLP&#45;&#45;NaturalLanguageGeneration</title>
<path fill="none" stroke="black" d="M823.05,-408.1C851.73,-443.1 899.59,-501.51 922.05,-528.91"/>
</g>
<!-- DataToText -->
<g id="node14" class="node">
<title>DataToText</title>
<ellipse fill="#b60205" stroke="black" cx="1137.57" cy="-510.2" rx="60" ry="15"/>
<text text-anchor="middle" x="1137.57" y="-507.1" font-family="Times,serif" font-size="12.00" fill="#ffffff">DataToText</text>
</g>
<!-- NLP&#45;&#45;DataToText -->
<g id="edge13" class="edge">
<title>NLP&#45;&#45;DataToText</title>
<path fill="none" stroke="black" d="M833.55,-392.86C898.43,-417.9 1040.22,-472.63 1104.6,-497.47"/>
</g>
<!-- ConceptToText -->
<g id="node15" class="node">
<title>ConceptToText</title>
<ellipse fill="#b60205" stroke="black" cx="717.2" cy="-572.13" rx="74" ry="15"/>
<text text-anchor="middle" x="717.2" y="-569.03" font-family="Times,serif" font-size="12.00" fill="#ffffff">ConceptToText</text>
</g>
<!-- NLP&#45;&#45;ConceptToText -->
<g id="edge14" class="edge">
<title>NLP&#45;&#45;ConceptToText</title>
<path fill="none" stroke="black" d="M785.53,-413.37C767.38,-455.54 736.97,-526.2 723.71,-557"/>
</g>
<!-- Survey&#45;&#45;Survey -->
<g id="edge15" class="edge">
<title>Survey&#45;&#45;Survey</title>
<path fill="none" stroke="black" d="M1019.29,-713.42C1031.69,-713.42 1041.61,-711.17 1041.61,-706.67 1041.61,-702.17 1031.69,-699.92 1019.29,-699.92"/>
</g>
<!-- Survey&#45;&#45;NaturalLanguageGeneration -->
<g id="edge16" class="edge">
<title>Survey&#45;&#45;NaturalLanguageGeneration</title>
<path fill="none" stroke="black" d="M977.7,-691.65C968.66,-660.82 948.07,-590.63 938.92,-559.43"/>
</g>
<!-- Survey&#45;&#45;DataToText -->
<g id="edge17" class="edge">
<title>Survey&#45;&#45;DataToText</title>
<path fill="none" stroke="black" d="M993.54,-692.22C1022.22,-655.98 1096.99,-561.49 1125.91,-524.94"/>
</g>
<!-- Survey&#45;&#45;ConceptToText -->
<g id="edge18" class="edge">
<title>Survey&#45;&#45;ConceptToText</title>
<path fill="none" stroke="black" d="M957.66,-694.25C908.22,-669.14 796.65,-612.48 744.74,-586.11"/>
</g>
<!-- Dataset&#45;&#45;Dataset -->
<g id="edge19" class="edge">
<title>Dataset&#45;&#45;Dataset</title>
<path fill="none" stroke="black" d="M653.74,-426.78C666.34,-426.67 676.27,-424.42 676.27,-420.03 676.27,-415.64 666.34,-413.39 653.74,-413.28"/>
</g>
<!-- Dataset&#45;&#45;DocumentSummarization -->
<g id="edge20" class="edge">
<title>Dataset&#45;&#45;DocumentSummarization</title>
<path fill="none" stroke="black" d="M582.94,-409.01C553.43,-398.47 508.76,-382.51 476.57,-371.01"/>
</g>
<!-- Dataset&#45;&#45;NaturalLanguageGeneration -->
<g id="edge21" class="edge">
<title>Dataset&#45;&#45;NaturalLanguageGeneration</title>
<path fill="none" stroke="black" d="M643.07,-431.36C701.51,-453.95 832.44,-504.57 896.98,-529.51"/>
</g>
<!-- Dataset&#45;&#45;ConceptToText -->
<g id="edge22" class="edge">
<title>Dataset&#45;&#45;ConceptToText</title>
<path fill="none" stroke="black" d="M623.88,-434.89C643.6,-463.89 687.02,-527.75 706.9,-556.98"/>
</g>
<!-- RecommenderSystems -->
<g id="node16" class="node">
<title>RecommenderSystems</title>
<ellipse fill="#0e8a16" stroke="black" cx="425.76" cy="-1119.68" rx="108" ry="15"/>
<text text-anchor="middle" x="425.76" y="-1116.58" font-family="Times,serif" font-size="12.00" fill="#ffffff">RecommenderSystems</text>
</g>
<!-- RecommenderSystems&#45;&#45;PersonalizedDocumentSummarization -->
<g id="edge23" class="edge">
<title>RecommenderSystems&#45;&#45;PersonalizedDocumentSummarization</title>
<path fill="none" stroke="black" d="M428.58,-1104.36C434.25,-1071.99 446.35,-994.19 444.76,-928.5 442.62,-840.56 420.65,-736.72 411.89,-698.5"/>
</g>
<!-- RecommenderSystems&#45;&#45;Others -->
<g id="edge24" class="edge">
<title>RecommenderSystems&#45;&#45;Others</title>
<path fill="none" stroke="black" d="M454.38,-1105.17C538.1,-1062.72 781.53,-939.3 859.15,-899.94"/>
</g>
<!-- Tutorial -->
<g id="node17" class="node">
<title>Tutorial</title>
<ellipse fill="#0e8a16" stroke="black" cx="587.78" cy="-1096.25" rx="46" ry="15"/>
<text text-anchor="middle" x="587.78" y="-1093.15" font-family="Times,serif" font-size="12.00" fill="#ffffff">Tutorial</text>
</g>
<!-- RecommenderSystems&#45;&#45;Tutorial -->
<g id="edge25" class="edge">
<title>RecommenderSystems&#45;&#45;Tutorial</title>
<path fill="none" stroke="black" d="M500.61,-1108.85C516.03,-1106.62 531.75,-1104.35 545.52,-1102.36"/>
</g>
<!-- CollaborativeFiltering -->
<g id="node18" class="node">
<title>CollaborativeFiltering</title>
<ellipse fill="#b60205" stroke="black" cx="394.26" cy="-1502.91" rx="106" ry="15"/>
<text text-anchor="middle" x="394.26" y="-1499.81" font-family="Times,serif" font-size="12.00" fill="#ffffff">CollaborativeFiltering</text>
</g>
<!-- RecommenderSystems&#45;&#45;CollaborativeFiltering -->
<g id="edge26" class="edge">
<title>RecommenderSystems&#45;&#45;CollaborativeFiltering</title>
<path fill="none" stroke="black" d="M424.53,-1134.7C419.5,-1195.87 400.59,-1425.84 395.52,-1487.57"/>
</g>
<!-- MatrixFactorization -->
<g id="node19" class="node">
<title>MatrixFactorization</title>
<ellipse fill="#b60205" stroke="black" cx="97" cy="-1267.73" rx="97" ry="15"/>
<text text-anchor="middle" x="97" y="-1264.63" font-family="Times,serif" font-size="12.00" fill="#ffffff">MatrixFactorization</text>
</g>
<!-- RecommenderSystems&#45;&#45;MatrixFactorization -->
<g id="edge27" class="edge">
<title>RecommenderSystems&#45;&#45;MatrixFactorization</title>
<path fill="none" stroke="black" d="M393.64,-1134.14C330.63,-1162.52 191.5,-1225.18 128.77,-1253.43"/>
</g>
<!-- InteractiveRecommenderSystems -->
<g id="node20" class="node">
<title>InteractiveRecommenderSystems</title>
<ellipse fill="#b60205" stroke="black" cx="289.16" cy="-928.48" rx="154" ry="15"/>
<text text-anchor="middle" x="289.16" y="-925.38" font-family="Times,serif" font-size="12.00" fill="#ffffff">InteractiveRecommenderSystems</text>
</g>
<!-- RecommenderSystems&#45;&#45;InteractiveRecommenderSystems -->
<g id="edge28" class="edge">
<title>RecommenderSystems&#45;&#45;InteractiveRecommenderSystems</title>
<path fill="none" stroke="black" d="M415.04,-1104.67C389.57,-1069.02 325.63,-979.52 300.02,-943.67"/>
</g>
<!-- RelevanceJudgment -->
<g id="node21" class="node">
<title>RelevanceJudgment</title>
<ellipse fill="#b60205" stroke="black" cx="729.23" cy="-1150.56" rx="95.5" ry="15"/>
<text text-anchor="middle" x="729.23" y="-1147.46" font-family="Times,serif" font-size="12.00" fill="#ffffff">RelevanceJudgment</text>
</g>
<!-- RecommenderSystems&#45;&#45;RelevanceJudgment -->
<g id="edge29" class="edge">
<title>RecommenderSystems&#45;&#45;RelevanceJudgment</title>
<path fill="none" stroke="black" d="M513.13,-1128.57C555.94,-1132.92 607.14,-1138.13 648.96,-1142.39"/>
</g>
<!-- Tutorial&#45;&#45;Tutorial -->
<g id="edge30" class="edge">
<title>Tutorial&#45;&#45;Tutorial</title>
<path fill="none" stroke="black" d="M629.02,-1102.99C641.77,-1102.86 651.78,-1100.61 651.78,-1096.25 651.78,-1091.89 641.77,-1089.64 629.02,-1089.51"/>
</g>
<!-- Tutorial&#45;&#45;InteractiveRecommenderSystems -->
<g id="edge31" class="edge">
<title>Tutorial&#45;&#45;InteractiveRecommenderSystems</title>
<path fill="none" stroke="black" d="M564.35,-1083.09C509.62,-1052.34 373.69,-975.97 315.87,-943.48"/>
</g>
<!-- UserModeling -->
<g id="node22" class="node">
<title>UserModeling</title>
<ellipse fill="#0e8a16" stroke="black" cx="896.68" cy="-1270.16" rx="71.5" ry="15"/>
<text text-anchor="middle" x="896.68" y="-1267.06" font-family="Times,serif" font-size="12.00" fill="#ffffff">UserModeling</text>
</g>
<!-- Tutorial&#45;&#45;UserModeling -->
<g id="edge32" class="edge">
<title>Tutorial&#45;&#45;UserModeling</title>
<path fill="none" stroke="black" d="M597.18,-1111.2C605.26,-1123.09 617.86,-1139.49 632.13,-1150.45 702.09,-1204.19 800.03,-1240.4 855,-1257.93"/>
</g>
<!-- UserModeling&#45;&#45;Others -->
<g id="edge33" class="edge">
<title>UserModeling&#45;&#45;Others</title>
<path fill="none" stroke="black" d="M896.14,-1254.69C893.96,-1192.93 885.92,-964.33 883.76,-902.97"/>
</g>
<!-- Article -->
<g id="node23" class="node">
<title>Article</title>
<ellipse fill="#0e8a16" stroke="black" cx="642.63" cy="-757.08" rx="40.5" ry="15"/>
<text text-anchor="middle" x="642.63" y="-753.98" font-family="Times,serif" font-size="12.00" fill="#ffffff">Article</text>
</g>
<!-- Article&#45;&#45;Survey -->
<g id="edge34" class="edge">
<title>Article&#45;&#45;Survey</title>
<path fill="none" stroke="black" d="M680.26,-751.49C745.25,-741.84 877.88,-722.15 943.53,-712.4"/>
</g>
<!-- Article&#45;&#45;Dataset -->
<g id="edge35" class="edge">
<title>Article&#45;&#45;Dataset</title>
<path fill="none" stroke="black" d="M641.32,-741.72C636.5,-685.44 619.84,-490.88 615.06,-435.09"/>
</g>
<!-- Article&#45;&#45;PersonalizedDocumentSummarization -->
<g id="edge36" class="edge">
<title>Article&#45;&#45;PersonalizedDocumentSummarization</title>
<path fill="none" stroke="black" d="M611.52,-747.3C571.31,-734.66 500.96,-712.54 454.51,-697.94"/>
</g>
<!-- Article&#45;&#45;DocumentSummarization -->
<g id="edge37" class="edge">
<title>Article&#45;&#45;DocumentSummarization</title>
<path fill="none" stroke="black" d="M634.81,-741.88C602.21,-678.47 477.23,-435.44 444.61,-372.01"/>
</g>
<!-- Article&#45;&#45;Others -->
<g id="edge38" class="edge">
<title>Article&#45;&#45;Others</title>
<path fill="none" stroke="black" d="M665.7,-769.61C711.69,-794.58 814.3,-850.3 860.23,-875.24"/>
</g>
<!-- Article&#45;&#45;QuestionAnswering -->
<g id="edge39" class="edge">
<title>Article&#45;&#45;QuestionAnswering</title>
<path fill="none" stroke="black" d="M631.54,-742.46C620.03,-727.44 601.37,-703.49 584.42,-683.47 518.31,-605.41 434.67,-516.01 401.78,-481.2"/>
</g>
<!-- Article&#45;&#45;NaturalLanguageGeneration -->
<g id="edge40" class="edge">
<title>Article&#45;&#45;NaturalLanguageGeneration</title>
<path fill="none" stroke="black" d="M661.33,-743.42C713.4,-705.39 859.79,-598.46 913.93,-558.92"/>
</g>
<!-- Article&#45;&#45;DataToText -->
<g id="edge41" class="edge">
<title>Article&#45;&#45;DataToText</title>
<path fill="none" stroke="black" d="M667.3,-744.9C733,-712.43 917.73,-621.01 1070.99,-544 1084.19,-537.36 1098.84,-529.93 1111.03,-523.74"/>
</g>
<!-- Article&#45;&#45;ConceptToText -->
<g id="edge42" class="edge">
<title>Article&#45;&#45;ConceptToText</title>
<path fill="none" stroke="black" d="M648.74,-741.94C662.75,-707.18 697.12,-621.93 711.12,-587.21"/>
</g>
<!-- Article&#45;&#45;Tutorial -->
<g id="edge43" class="edge">
<title>Article&#45;&#45;Tutorial</title>
<path fill="none" stroke="black" d="M640.21,-772.09C631.14,-828.12 599.36,-1024.65 590.24,-1081.03"/>
</g>
<!-- Article&#45;&#45;InteractiveRecommenderSystems -->
<g id="edge44" class="edge">
<title>Article&#45;&#45;InteractiveRecommenderSystems</title>
<path fill="none" stroke="black" d="M617.78,-769.13C554.68,-799.73 388.46,-880.32 319.66,-913.69"/>
</g>
<!-- Article&#45;&#45;RelevanceJudgment -->
<g id="edge45" class="edge">
<title>Article&#45;&#45;RelevanceJudgment</title>
<path fill="none" stroke="black" d="M646.03,-772.5C659.88,-835.45 712.05,-1072.49 725.85,-1135.24"/>
</g>
<!-- InformationRetrieval -->
<g id="node24" class="node">
<title>InformationRetrieval</title>
<ellipse fill="#0e8a16" stroke="black" cx="1083.89" cy="-1075.29" rx="101" ry="15"/>
<text text-anchor="middle" x="1083.89" y="-1072.19" font-family="Times,serif" font-size="12.00" fill="#ffffff">InformationRetrieval</text>
</g>
<!-- InformationRetrieval&#45;&#45;Survey -->
<g id="edge46" class="edge">
<title>InformationRetrieval&#45;&#45;Survey</title>
<path fill="none" stroke="black" d="M1079.64,-1059.92C1063.05,-999.83 1002.68,-781.18 986.26,-721.7"/>
</g>
<!-- InformationRetrieval&#45;&#45;Others -->
<g id="edge47" class="edge">
<title>InformationRetrieval&#45;&#45;Others</title>
<path fill="none" stroke="black" d="M1067.81,-1060.26C1029.86,-1024.79 935.18,-936.3 898.28,-901.81"/>
</g>
<!-- InformationRetrieval&#45;&#45;RelevanceJudgment -->
<g id="edge48" class="edge">
<title>InformationRetrieval&#45;&#45;RelevanceJudgment</title>
<path fill="none" stroke="black" d="M1025.72,-1087.64C959.49,-1101.69 852,-1124.5 786.25,-1138.45"/>
</g>
<!-- ComputerVision -->
<g id="node25" class="node">
<title>ComputerVision</title>
<ellipse fill="#0e8a16" stroke="black" cx="1285.47" cy="-789.99" rx="80" ry="15"/>
<text text-anchor="middle" x="1285.47" y="-786.89" font-family="Times,serif" font-size="12.00" fill="#ffffff">ComputerVision</text>
</g>
<!-- ComputerVision&#45;&#45;Others -->
<g id="edge49" class="edge">
<title>ComputerVision&#45;&#45;Others</title>
<path fill="none" stroke="black" d="M1236.55,-801.88C1153.85,-821.98 988.46,-862.16 917.19,-879.48"/>
</g>
<!-- ComputerVision&#45;&#45;NaturalLanguageGeneration -->
<g id="edge50" class="edge">
<title>ComputerVision&#45;&#45;NaturalLanguageGeneration</title>
<path fill="none" stroke="black" d="M1264.56,-775.34C1202.26,-731.69 1018.36,-602.82 955.63,-558.86"/>
</g>
<!-- MachineLearning -->
<g id="node26" class="node">
<title>MachineLearning</title>
<ellipse fill="#0e8a16" stroke="black" cx="1293.66" cy="-1084.98" rx="87" ry="15"/>
<text text-anchor="middle" x="1293.66" y="-1081.88" font-family="Times,serif" font-size="12.00" fill="#ffffff">MachineLearning</text>
</g>
<!-- MachineLearning&#45;&#45;Others -->
<g id="edge51" class="edge">
<title>MachineLearning&#45;&#45;Others</title>
<path fill="none" stroke="black" d="M1264.14,-1070.8C1186.85,-1033.65 979.58,-934.04 907.97,-899.62"/>
</g>
</g>
</svg>
